<?xml version="1.0" encoding="UTF-8" standalone="no"?>
<!-- Created with Inkscape (http://www.inkscape.org/) -->

<svg
   width="309.47699"
   height="88.776176"
   viewBox="0 0 81.882446 23.488697"
   version="1.1"
   id="svg1"
   sodipodi:docname="logo.svg"
   inkscape:version="1.3.2 (091e20ef0f, 2023-11-25, custom)"
   xmlns:inkscape="http://www.inkscape.org/namespaces/inkscape"
   xmlns:sodipodi="http://sodipodi.sourceforge.net/DTD/sodipodi-0.dtd"
   xmlns:xlink="http://www.w3.org/1999/xlink"
   xmlns="http://www.w3.org/2000/svg"
   xmlns:svg="http://www.w3.org/2000/svg">
  <sodipodi:namedview
     id="namedview1"
     pagecolor="#ffffff"
     bordercolor="#000000"
     borderopacity="0.25"
     inkscape:showpageshadow="2"
     inkscape:pageopacity="0.0"
     inkscape:pagecheckerboard="true"
     inkscape:deskcolor="#d1d1d1"
     inkscape:zoom="2.7698983"
     inkscape:cx="204.88117"
     inkscape:cy="56.861294"
     inkscape:window-width="1541"
     inkscape:window-height="1080"
     inkscape:window-x="0"
     inkscape:window-y="0"
     inkscape:window-maximized="0"
     inkscape:current-layer="svg1" />
  <defs
     id="defs1" />
  <path
     id="rect4"
     style="fill:#ffffff;fill-rule:evenodd;stroke-width:0.0963404;stroke-linecap:round;stroke-linejoin:round;stroke-miterlimit:10;paint-order:fill markers stroke"
     d="M 19.536682,0 H 77.90312 c 2.204573,0 3.979333,1.7748013 3.979333,3.9793751 V 19.50932 c 0,2.204575 -1.77476,3.979375 -3.979333,3.979375 H 19.536682 c -2.204573,0 -3.979374,-1.774801 -3.979374,-3.979375 V 3.9793751 C 15.557308,1.7748013 17.332109,0 19.536682,0 Z"
     sodipodi:nodetypes="sssssssss" />
  <g
     id="g13"
     style="fill:#ff6600;stroke:none"
     transform="matrix(0.07435561,0,-0.03275902,0.17373027,-1.0536609,27.663805)">
    <rect
       style="fill:#ff6600;fill-rule:evenodd;stroke:none;stroke-width:0.264583;stroke-linecap:round;stroke-linejoin:round;stroke-miterlimit:10;paint-order:fill markers stroke"
       id="rect11"
       width="135.20209"
       height="135.20209"
       x="192.65698"
       y="-159.23422"
       rx="0"
       ry="0" />
  </g>
  <g
     id="g1"
     transform="matrix(0.17373027,0,0,0.17373027,62.713149,-31.320735)">
    <g
       id="g3"
       style="fill:#ffffff;stroke:#ff0000"
       transform="translate(-553.63696,339.51792)">
      <rect
         style="fill:#ff6600;fill-rule:evenodd;stroke:none;stroke-width:0.264583;stroke-linecap:round;stroke-linejoin:round;stroke-miterlimit:10;paint-order:fill markers stroke"
         id="rect3"
         width="135.20209"
         height="135.20209"
         x="192.65698"
         y="-159.23422"
         rx="22.905479"
         ry="22.905479" />
    </g>
    <g
       id="g5"
       transform="matrix(1.1185809,0,0,1.1197896,-370.53276,190.8355)"
       style="fill:#ffffff;stroke:#ffffff;stroke-width:0.893507">
      <use
         x="0"
         y="0"
         xlink:href="#g2"
         id="use4"
         transform="translate(-52.916667)"
         style="fill:#ffffff;stroke:#ffffff;stroke-width:0.893507" />
      <use
         x="0"
         y="0"
         xlink:href="#g2"
         id="use3"
         transform="translate(-26.458334)"
         style="fill:#ffffff;stroke:#ffffff;stroke-width:0.893507" />
      <g
         id="g2"
         transform="translate(9.5256134,0.10132618)"
         style="fill:#ffffff;stroke:#ffffff;stroke-width:1.18204;stroke-dasharray:none">
        <path
           id="path2"
           style="color:#000000;fill:#ffffff;fill-rule:evenodd;stroke:#ffffff;stroke-width:2.36407;stroke-linecap:square;stroke-miterlimit:10;stroke-dasharray:none;paint-order:fill markers stroke"
           d="m 76.35177,19.215045 c -1.7196,0.01526 -3.377324,0.972918 -4.228682,2.617928 l -1.595768,3.083016 c -1.238339,2.392741 -0.301713,5.337756 2.025199,6.695198 3.641486,2.12432 7.283135,4.468139 10.924915,6.591846 2.326493,1.356696 3.836517,4.502871 3.305741,7.144266 l -6.78738,33.775654 a 2.8005571,2.8005571 50.681262 0 0 2.745667,3.352312 h 7.108296 c 1.63786,0 3.227363,-1.30169 3.550224,-2.907412 2.773953,-13.795988 5.546297,-27.592295 8.318718,-41.388591 0.53079,-2.641392 -0.9802,-5.784807 -3.339334,-7.085873 -6.571287,-3.624079 -13.14229,-7.668153 -19.714042,-11.2913 -0.737143,-0.406403 -1.531917,-0.593981 -2.313554,-0.587044 z" />
        <text
           xml:space="preserve"
           style="font-weight:bold;font-size:37.9198px;line-height:0;font-family:'Noto Naskh Arabic';-inkscape-font-specification:'Noto Naskh Arabic, Bold';text-align:justify;letter-spacing:1.32292px;word-spacing:2.64583px;direction:rtl;text-orientation:sideways;fill:#ffffff;fill-rule:evenodd;stroke:#ffffff;stroke-width:1.18204;stroke-linecap:square;stroke-linejoin:miter;stroke-miterlimit:10;stroke-dasharray:none;paint-order:fill markers stroke"
           x="168.95973"
           y="13.978068"
           id="text5"><tspan
             id="tspan5"
             style="fill:#ffffff;stroke:#ffffff;stroke-width:1.18204;stroke-dasharray:none"
             x="168.95973"
             y="13.978068" /></text>
      </g>
    </g>
  </g>
  <path
     style="font-size:12.5034px;line-height:0;font-family:'Oswald Regular';-inkscape-font-specification:'Oswald Regular, Normal';letter-spacing:0.146524px;word-spacing:0px;text-orientation:sideways;white-space:pre;fill:#ff6600;fill-rule:evenodd;stroke:#ff6600;stroke-width:0.264583;stroke-linecap:round;stroke-linejoin:round;stroke-miterlimit:10;paint-order:fill markers stroke"
     d="M 32.769967,16.79394 V 6.6825588 h 1.381262 l 1.790762,8.2025372 1.802987,-8.2025372 h 1.381339 V 16.79394 H 38.062692 V 9.4451979 L 36.345372,16.79394 H 35.550835 L 33.845762,9.4451979 V 16.79394 Z m 10.830131,0.109773 c -0.505244,0 -0.939182,-0.07522 -1.301816,-0.225645 -0.358561,-0.150432 -0.643779,-0.372012 -0.855655,-0.664741 -0.211876,-0.292731 -0.366709,-0.634249 -0.464498,-1.024555 -0.09779,-0.390307 -0.146684,-0.845664 -0.146684,-1.366073 V 9.7928147 c 0,-1.0530147 0.213913,-1.8498908 0.641741,-2.3906281 0.431901,-0.544803 1.140872,-0.8172046 2.126912,-0.8172046 0.981966,0 1.688899,0.2744344 2.120801,0.8233031 0.431903,0.544803 0.647853,1.3396462 0.647853,2.3845296 v 3.8359823 c 0,1.053014 -0.217988,1.862087 -0.653964,2.427219 -0.431903,0.565132 -1.136799,0.847697 -2.11469,0.847697 z m -0.690635,-1.231905 c 0.183354,0.08538 0.413566,0.128069 0.690635,0.128069 0.27707,0 0.505245,-0.04269 0.684524,-0.128069 0.183355,-0.08538 0.321889,-0.215481 0.415604,-0.390306 0.09371,-0.174825 0.156869,-0.365913 0.189466,-0.573263 0.03667,-0.211416 0.05501,-0.47162 0.05501,-0.780613 V 9.5000846 c 0,-0.3049269 -0.01834,-0.5590328 -0.05501,-0.7623175 -0.0326,-0.2032848 -0.09575,-0.3903067 -0.189466,-0.5610658 -0.09371,-0.1707592 -0.232249,-0.2947629 -0.415604,-0.372011 -0.179279,-0.081314 -0.407454,-0.1219708 -0.684524,-0.1219708 -0.277069,0 -0.507281,0.040657 -0.690635,0.1219708 -0.17928,0.077248 -0.315777,0.2012518 -0.409492,0.372011 -0.09371,0.1707591 -0.158907,0.357781 -0.195578,0.5610658 -0.0326,0.2032847 -0.04889,0.4573906 -0.04889,0.7623175 v 4.4275414 c 0,0.308993 0.0163,0.569197 0.04889,0.780613 0.03667,0.20735 0.101866,0.398438 0.195578,0.573263 0.09371,0.174825 0.230212,0.304926 0.409492,0.390306 z m 5.005578,1.122132 V 6.6825588 h 2.200255 c 1.096052,0 1.868178,0.2480073 2.316378,0.7440219 0.452274,0.4960147 0.678412,1.276628 0.678412,2.3418398 v 3.7201105 c 0,1.109934 -0.2241,1.939336 -0.6723,2.488205 -0.444126,0.544802 -1.183656,0.817204 -2.218589,0.817204 z m 1.41183,-1.012358 h 0.794536 c 0.215951,0 0.405417,-0.02033 0.568399,-0.06098 0.167057,-0.04472 0.305591,-0.09555 0.415604,-0.152463 0.110012,-0.06098 0.20169,-0.15653 0.275032,-0.286631 0.07741,-0.130102 0.13446,-0.250041 0.171131,-0.359814 0.04074,-0.109774 0.07131,-0.272402 0.09168,-0.487884 0.02037,-0.215481 0.0326,-0.398437 0.03667,-0.548869 0.0041,-0.154496 0.0061,-0.376075 0.0061,-0.66474 V 9.9330811 c 0,-0.2439416 -0.0041,-0.4492592 -0.01222,-0.6159526 -0.0081,-0.1666935 -0.02444,-0.3333869 -0.04889,-0.5000804 -0.02445,-0.1666934 -0.06112,-0.3028942 -0.11001,-0.4086023 -0.04889,-0.1057081 -0.11205,-0.2053175 -0.189466,-0.2988285 -0.07742,-0.097577 -0.173169,-0.1707591 -0.287256,-0.2195474 -0.114087,-0.052854 -0.248548,-0.093511 -0.40338,-0.1219709 -0.154833,-0.02846 -0.33615,-0.04269 -0.543952,-0.04269 h -0.763977 z m 5.329505,1.012358 V 6.6825588 h 3.923787 V 7.7254092 H 56.068206 V 11.06741 h 2.041347 v 1.006259 h -2.041347 v 3.707913 h 2.542516 v 1.012358 z m 8.678781,0 1.833544,-9.0624322 h -2.713646 v -1.048949 h 4.046023 V 7.3290041 L 64.62475,16.79394 Z m 4.962794,0 1.833546,-9.0624322 H 67.41785 v -1.048949 h 4.046023 V 7.3290041 L 69.587545,16.79394 Z m 4.962794,0 1.833546,-9.0624322 h -2.713647 v -1.048949 h 4.046023 V 7.3290041 L 74.550339,16.79394 Z"
     id="text1"
     aria-label="MODE 777"
     sodipodi:nodetypes="ccccccccccccccscsssscscsscscscscsscscscscsscscccscsscsccsccccscsssssccssccccccccccccccccccccccccccccccccccccccc" />
</svg>
