<?xml version="1.0" encoding="UTF-8" standalone="no"?>
<!-- Uploaded to: SVG Repo, www.svgrepo.com, Generator: SVG Repo Mixer Tools -->

<svg
   width="800px"
   height="800px"
   viewBox="0 0 24 24"
   fill="none"
   version="1.1"
   id="svg1"
   sodipodi:docname="phone.svg"
   inkscape:version="1.3.2 (091e20ef0f, 2023-11-25, custom)"
   xmlns:inkscape="http://www.inkscape.org/namespaces/inkscape"
   xmlns:sodipodi="http://sodipodi.sourceforge.net/DTD/sodipodi-0.dtd"
   xmlns="http://www.w3.org/2000/svg"
   xmlns:svg="http://www.w3.org/2000/svg">
  <defs
     id="defs1">
    <inkscape:path-effect
       effect="offset"
       id="path-effect2"
       is_visible="true"
       lpeversion="1.2"
       linejoin_type="miter"
       unit="px"
       offset="-5"
       miter_limit="4"
       attempt_force_join="false"
       update_on_knot_move="true" />
    <inkscape:path-effect
       effect="offset"
       id="path-effect1"
       is_visible="true"
       lpeversion="1.2"
       linejoin_type="miter"
       unit="px"
       offset="-10"
       miter_limit="4"
       attempt_force_join="false"
       update_on_knot_move="true" />
  </defs>
  <sodipodi:namedview
     id="namedview1"
     pagecolor="#ffffff"
     bordercolor="#000000"
     borderopacity="0.25"
     inkscape:showpageshadow="2"
     inkscape:pageopacity="0.0"
     inkscape:pagecheckerboard="true"
     inkscape:deskcolor="#d1d1d1"
     inkscape:zoom="0.92874422"
     inkscape:cx="408.07791"
     inkscape:cy="416.15333"
     inkscape:window-width="1920"
     inkscape:window-height="1052"
     inkscape:window-x="0"
     inkscape:window-y="0"
     inkscape:window-maximized="1"
     inkscape:current-layer="svg1" />
  <circle
     style="fill:#0066ff;fill-rule:evenodd;stroke:#ffffff;stroke-width:0.9;stroke-linecap:round;stroke-linejoin:round;stroke-miterlimit:10;stroke-dasharray:none;paint-order:fill markers stroke;fill-opacity:0.25098041"
     id="path2"
     cx="12"
     cy="12"
     r="11.04" />
  <path
     style="color:#000000;fill:none;stroke:#ff7f2a;stroke-width:0.9;stroke-linecap:round;stroke-linejoin:round;stroke-dasharray:none"
     d="m 8.5092762,7.6499499 c 0.049254,-2.625e-4 0.1002491,8.731e-4 0.1550319,8.731e-4 h 1.2630281 c 0.1877948,0 0.3043628,-0.010445 0.4615918,0.049926 0.116671,0.0448 0.220413,0.1178637 0.302181,0.2119644 0.110464,0.1271272 0.141671,0.23961 0.205833,0.4160472 l 0.522904,1.4382046 c 0.07459,0.2051789 0.132521,0.3265378 0.119996,0.5194008 -0.0092,0.140852 -0.05698,0.275772 -0.138389,0.390644 -0.111811,0.157774 -0.233431,0.215386 -0.420426,0.327582 l -0.32145,0.192694 0.06394,0.113866 c 0.461509,0.828738 1.136824,1.50447 1.965489,1.965488 l 0.113866,0.06394 0.192694,-0.32145 c 0.112283,-0.187169 0.169734,-0.308586 0.327582,-0.420426 0.11494,-0.08144 0.24971,-0.129234 0.390646,-0.138389 0.192885,-0.01253 0.314202,0.0454 0.5194,0.119996 l 1.43733,0.522904 c 0.176451,0.06418 0.289729,0.09528 0.416921,0.205833 0.09237,0.08027 0.164435,0.181313 0.209337,0.295174 8.07e-4,0.002 0.0019,0.0041 0.0026,0.0061 v 8.97e-4 c 0.06073,0.158474 0.04992,0.2746 0.04992,0.461592 v 1.263007 c 0,0.221727 0.01273,0.369306 -0.07533,0.551808 -0.07083,0.146915 -0.164961,0.247827 -0.30656,0.329334 -0.165421,0.09519 -0.315636,0.09925 -0.515021,0.113865 -0.177779,0.01303 -0.357052,0.01927 -0.537794,0.01927 -4.006097,0 -7.2646017,-3.258509 -7.2646017,-7.2645977 0,-0.1807716 0.00626,-0.3600744 0.01927,-0.537794 C 7.6838701,8.348281 7.687884,8.1981344 7.7831322,8.0326987 7.8646019,7.8912054 7.9655265,7.7969964 8.1124655,7.7261386 8.2450624,7.6622015 8.3657104,7.6507017 8.509242,7.6499363 Z"
     id="path1"
     sodipodi:nodetypes="csssscccscccccccccccsccssccsssccccc" />
</svg>
